# Blender v2.81 (sub 16) OBJ File: 'soundbar.blend'
# www.blender.org
mtllib soundbar.mtl
o Cube
v 1.000000 1.000000 -7.037708
v 1.000000 -1.000000 -7.037708
v 1.000000 1.000000 7.024357
v 1.000000 -1.000000 7.024357
v -1.000000 1.000000 -7.037708
v -1.000000 -1.000000 -7.037708
v -1.000000 1.000000 7.024357
v -1.000000 -1.000000 7.024357
v 1.791698 0.392079 -2.763396
v 1.791698 -0.392079 -2.763396
v 1.791698 0.392079 2.750045
v 1.791698 -0.392079 2.750045
v 0.190143 -0.190143 -10.253512
v -0.190143 -0.190143 -10.253512
v 0.190143 0.190143 -10.253512
v -0.190143 0.190143 -10.253512
v -0.190143 -0.190143 10.284236
v -0.190143 0.190143 10.284236
v 0.190143 0.190143 10.284236
v 0.190143 -0.190143 10.284236
v -1.000000 -1.000000 -0.006676
v 1.000000 1.000000 -0.006676
v -1.000000 1.000000 -0.006675
v 1.000000 -1.000000 -0.006675
v 1.791698 0.392079 -0.006675
v 1.791698 -0.392079 -0.006675
v -1.000000 1.000000 -3.522192
v 1.000000 -1.000000 -3.522192
v 1.791698 -0.392079 -1.385036
v -1.000000 -1.000000 -3.522192
v 1.000000 1.000000 -3.522192
v 1.791698 0.392079 -1.385036
v 0.000000 -1.000000 -7.037708
v 0.000000 1.000000 7.024357
v 0.000000 -1.000000 7.024357
v 0.000000 1.000000 -7.037708
v 0.000000 -0.190143 -10.253512
v 0.000000 0.190143 -10.253512
v 0.000000 0.190143 10.284236
v 0.000000 -0.190143 10.284236
v 0.000000 -1.000000 -0.006675
v 0.000000 1.059884 -0.006675
v 0.000000 1.000000 -3.522192
v 0.000000 -1.000000 -3.522192
v 0.000000 1.000000 0.196299
v -0.198050 1.000000 -0.006675
v 0.201906 1.000000 -0.006676
v 0.000000 1.000000 -0.219230
v -1.000000 -1.000000 3.508841
v 1.000000 1.000000 3.508841
v 1.791698 0.392079 1.371685
v -1.000000 1.000000 3.508841
v 1.000000 -1.000000 3.508841
v 1.791698 -0.392079 1.371685
v 0.000000 -1.000000 3.508841
vt 0.504975 0.295174
vt 0.516337 0.295176
vt 0.504977 0.300823
vt 0.344881 0.100779
vt 0.287525 0.100779
vt 0.333976 0.010090
vt 0.344881 0.010090
vt 0.562333 0.394236
vt 0.677046 0.394236
vt 0.677046 0.492053
vt 0.562333 0.492053
vt 0.344881 0.198596
vt 0.287525 0.198596
vt 0.791758 0.490847
vt 0.677046 0.490847
vt 0.711914 0.371925
vt 0.756890 0.371925
vt 0.791758 0.099577
vt 0.677046 0.099577
vt 0.723496 0.010090
vt 0.745308 0.010090
vt 0.711914 0.333573
vt 0.756890 0.333573
vt 0.756890 0.218517
vt 0.711914 0.218517
vt 0.287525 0.394231
vt 0.287525 0.492049
vt 0.242117 0.373130
vt 0.242117 0.334778
vt 0.447621 0.392993
vt 0.447621 0.490811
vt 0.402238 0.371901
vt 0.402238 0.333549
vt 0.802664 0.031253
vt 0.802664 0.020671
vt 0.813570 0.020671
vt 0.813570 0.031253
vt 0.630595 0.581543
vt 0.608784 0.581543
vt 0.344882 0.492049
vt 0.402238 0.492049
vt 0.355787 0.581543
vt 0.344882 0.581543
vt 0.504977 0.099541
vt 0.447621 0.099541
vt 0.494105 0.010090
vt 0.505011 0.010090
vt 0.802664 0.020671
vt 0.802664 0.010090
vt 0.813570 0.010090
vt 0.813570 0.020671
vt 0.504977 0.490811
vt 0.562333 0.490811
vt 0.515917 0.581543
vt 0.505011 0.581543
vt 0.745308 0.581543
vt 0.723496 0.581543
vt 0.677046 0.100783
vt 0.562333 0.100783
vt 0.608784 0.010090
vt 0.630595 0.010090
vt 0.447621 0.197358
vt 0.447621 0.295176
vt 0.402238 0.295196
vt 0.402238 0.256844
vt 0.287525 0.296414
vt 0.242117 0.296426
vt 0.242117 0.258074
vt 0.711914 0.256869
vt 0.756890 0.256869
vt 0.756890 0.295221
vt 0.711914 0.295221
vt 0.344881 0.394231
vt 0.344881 0.296414
vt 0.562333 0.198600
vt 0.677046 0.198600
vt 0.677046 0.296418
vt 0.562333 0.296418
vt 0.504977 0.197358
vt 0.562333 0.197358
vt 0.562333 0.295176
vt 0.504977 0.289261
vt 0.562333 0.099541
vt 0.402238 0.218492
vt 0.402238 0.394231
vt 0.493397 0.295176
vt 0.402238 0.296414
vt 0.494105 0.581543
vt 0.791758 0.020671
vt 0.791758 0.010090
vt 0.515917 0.010090
vt 0.333976 0.581543
vt 0.791758 0.031253
vt 0.791758 0.020671
vt 0.402238 0.198596
vt 0.402238 0.100779
vt 0.355787 0.010090
vt 0.562333 0.392993
vt 0.242117 0.219721
vn -0.2785 0.9212 0.2718
vn 0.0000 -0.9705 0.2411
vn -1.0000 0.0000 0.0000
vn 0.0000 -1.0000 0.0000
vn 0.9833 0.0000 0.1821
vn 0.9697 0.0000 -0.2442
vn 1.0000 0.0000 0.0000
vn 0.9833 0.0000 -0.1821
vn 0.6090 -0.7931 0.0000
vn 0.6090 0.7931 0.0000
vn 0.0000 0.0000 -1.0000
vn -0.9697 0.0000 -0.2442
vn 0.0000 -0.9697 -0.2442
vn 0.0000 0.9697 -0.2442
vn 0.0000 0.0000 1.0000
vn 0.0000 0.9705 0.2411
vn 0.9705 0.0000 0.2411
vn -0.9705 0.0000 0.2411
vn 0.0000 1.0000 0.0000
vn -0.2794 0.9242 -0.2604
vn 0.2736 0.9225 0.2722
vn 0.2745 0.9256 -0.2608
usemtl Material
s off
f 42/1/1 46/2/1 45/3/1
f 35/4/2 4/5/2 20/6/2 40/7/2
f 30/8/3 27/9/3 5/10/3 6/11/3
f 55/12/4 53/13/4 4/5/4 35/4/4
f 3/14/5 4/15/5 12/16/5 11/17/5
f 1/18/6 2/19/6 13/20/6 15/21/6
f 54/22/7 51/23/7 11/17/7 12/16/7
f 2/19/8 1/18/8 9/24/8 10/25/8
f 28/26/9 2/27/9 10/28/9 29/29/9
f 50/30/10 3/31/10 11/32/10 51/33/10
f 37/34/11 38/35/11 15/36/11 13/37/11
f 6/11/12 5/10/12 16/38/12 14/39/12
f 33/40/13 6/41/13 14/42/13 37/43/13
f 36/44/14 1/45/14 15/46/14 38/47/14
f 40/48/15 39/49/15 18/50/15 17/51/15
f 34/52/16 7/53/16 18/54/16 39/55/16
f 4/15/17 3/14/17 19/56/17 20/57/17
f 7/58/18 8/59/18 17/60/18 18/61/18
f 31/62/10 22/63/10 25/64/10 32/65/10
f 53/13/9 24/66/9 26/67/9 54/68/9
f 29/69/7 32/70/7 25/71/7 26/72/7
f 44/73/4 28/26/4 24/66/4 41/74/4
f 49/75/3 52/76/3 23/77/3 21/78/3
f 43/79/19 27/80/19 23/81/19 46/2/19 48/82/19
f 36/44/19 5/83/19 27/80/19 43/79/19
f 33/40/4 2/27/4 28/26/4 44/73/4
f 10/25/7 9/24/7 32/70/7 29/69/7
f 1/45/10 31/62/10 32/65/10 9/84/10
f 24/66/9 28/26/9 29/29/9 26/67/9
f 21/78/3 23/77/3 27/9/3 30/8/3
f 6/41/4 33/40/4 44/73/4 30/85/4
f 1/45/19 36/44/19 43/79/19 31/62/19
f 31/62/19 43/79/19 48/82/19 47/86/19 22/63/19
f 30/85/4 44/73/4 41/74/4 21/87/4
f 3/31/16 34/52/16 39/55/16 19/88/16
f 20/89/15 19/90/15 39/49/15 40/48/15
f 5/83/14 36/44/14 38/47/14 16/91/14
f 2/27/13 33/40/13 37/43/13 13/92/13
f 14/93/11 16/94/11 38/35/11 37/34/11
f 49/95/4 55/12/4 35/4/4 8/96/4
f 8/96/2 35/4/2 40/7/2 17/97/2
f 22/63/19 47/86/19 45/3/19 34/52/19 3/31/19 50/30/19
f 21/87/4 41/74/4 55/12/4 49/95/4
f 48/82/20 46/2/20 42/1/20
f 45/3/19 46/2/19 23/81/19 52/98/19 7/53/19 34/52/19
f 45/3/21 47/86/21 42/1/21
f 47/86/22 48/82/22 42/1/22
f 8/59/3 7/58/3 52/76/3 49/75/3
f 4/5/9 53/13/9 54/68/9 12/99/9
f 22/63/10 50/30/10 51/33/10 25/64/10
f 26/72/7 25/71/7 51/23/7 54/22/7
f 41/74/4 24/66/4 53/13/4 55/12/4
