# Blender v2.81 (sub 16) OBJ File: 'soundbar.blend'
# www.blender.org
mtllib soundbar.mtl
o Cube
v 1.000000 1.000000 -7.037708
v 1.000000 -1.000000 -7.037708
v 1.000000 1.000000 7.024357
v 1.000000 -1.000000 7.024357
v -1.000000 1.000000 -7.037708
v -1.000000 -1.000000 -7.037708
v -1.000000 1.000000 7.024357
v -1.000000 -1.000000 7.024357
v 1.791698 0.392079 -2.763396
v 1.791698 -0.392079 -2.763396
v 1.791698 0.392079 2.750045
v 1.791698 -0.392079 2.750045
v 0.190143 -0.190143 -10.253512
v -0.190143 -0.190143 -10.253512
v 0.190143 0.190143 -10.253512
v -0.190143 0.190143 -10.253512
v -0.190143 -0.190143 10.284236
v -0.190143 0.190143 10.284236
v 0.190143 0.190143 10.284236
v 0.190143 -0.190143 10.284236
v -1.000000 -1.000000 -0.006676
v 1.000000 1.000000 -0.006676
v -1.000000 1.000000 -0.006675
v 1.000000 -1.000000 -0.006675
v 1.791698 0.392079 -0.006675
v 1.791698 -0.392079 -0.006675
v -1.000000 1.000000 -3.522192
v 1.000000 -1.000000 -3.522192
v 1.791698 -0.392079 -1.385036
v -1.000000 -1.000000 -3.522192
v 1.000000 1.000000 -3.522192
v 1.791698 0.392079 -1.385036
v 0.000000 -1.000000 -7.037708
v 0.000000 1.000000 7.024357
v 0.000000 -1.000000 7.024357
v 0.000000 1.000000 -7.037708
v 0.000000 -0.190143 -10.253512
v 0.000000 0.190143 -10.253512
v 0.000000 0.190143 10.284236
v 0.000000 -0.190143 10.284236
v 0.000000 -1.000000 -0.006675
v 0.000000 1.059884 -0.006675
v 0.000000 1.000000 -3.522192
v 0.000000 -1.000000 -3.522192
v 0.000000 1.000000 0.196299
v -0.198050 1.000000 -0.006675
v 0.201906 1.000000 -0.006676
v 0.000000 1.000000 -0.219230
v -1.000000 -1.000000 3.508841
v 1.000000 1.000000 3.508841
v 1.791698 0.392079 1.371685
v -1.000000 1.000000 3.508841
v 1.000000 -1.000000 3.508841
v 1.791698 -0.392079 1.371685
v 0.000000 -1.000000 3.508841
vt 0.750000 0.625000
vt 0.774756 0.625000
vt 0.750000 0.628609
vt 0.250000 0.750000
vt 0.375000 0.750000
vt 0.375000 0.750000
vt 0.250000 0.750000
vt 0.375000 0.187500
vt 0.625000 0.187500
vt 0.625000 0.250000
vt 0.375000 0.250000
vt 0.250000 0.687500
vt 0.375000 0.687500
vt 0.625000 0.750000
vt 0.375000 0.750000
vt 0.625000 0.750000
vt 0.625000 0.500000
vt 0.375000 0.500000
vt 0.375000 0.500000
vt 0.625000 0.500000
vt 0.375000 0.687500
vt 0.625000 0.687500
vt 0.625000 0.500000
vt 0.375000 0.500000
vt 0.375000 0.562500
vt 0.375000 0.562500
vt 0.625000 0.687500
vt 0.375000 0.375000
vt 0.625000 0.375000
vt 0.625000 0.250000
vt 0.375000 0.250000
vt 0.250000 0.500000
vt 0.125000 0.500000
vt 0.125000 0.500000
vt 0.250000 0.500000
vt 0.750000 0.500000
vt 0.750000 0.500000
vt 0.375000 0.875000
vt 0.625000 0.875000
vt 0.625000 1.000000
vt 0.375000 1.000000
vt 0.750000 0.750000
vt 0.875000 0.750000
vt 0.875000 0.750000
vt 0.750000 0.750000
vt 0.625000 0.750000
vt 0.625000 0.000000
vt 0.375000 0.000000
vt 0.375000 0.000000
vt 0.625000 0.000000
vt 0.625000 0.562500
vt 0.625000 0.625000
vt 0.625000 0.625000
vt 0.625000 0.562500
vt 0.375000 0.625000
vt 0.375000 0.625000
vt 0.250000 0.562500
vt 0.250000 0.625000
vt 0.375000 0.062500
vt 0.625000 0.062500
vt 0.625000 0.125000
vt 0.375000 0.125000
vt 0.750000 0.562500
vt 0.875000 0.562500
vt 0.875000 0.625000
vt 0.750000 0.621772
vt 0.875000 0.500000
vt 0.125000 0.562500
vt 0.724762 0.625000
vt 0.125000 0.625000
vt 0.875000 0.500000
vt 0.125000 0.687500
vt 0.125000 0.750000
vt 0.125000 0.750000
vt 0.875000 0.687500
vn -0.2785 0.9212 0.2718
vn 0.0000 -0.9705 0.2411
vn -1.0000 0.0000 0.0000
vn 0.0000 -1.0000 0.0000
vn 0.9833 0.0000 0.1821
vn 0.9697 0.0000 -0.2442
vn 1.0000 0.0000 0.0000
vn 0.9833 0.0000 -0.1821
vn 0.6090 -0.7931 0.0000
vn 0.6090 0.7931 0.0000
vn 0.0000 0.0000 -1.0000
vn -0.9697 0.0000 -0.2442
vn 0.0000 -0.9697 -0.2442
vn 0.0000 0.9697 -0.2442
vn 0.0000 0.0000 1.0000
vn 0.0000 0.9705 0.2411
vn 0.9705 0.0000 0.2411
vn -0.9705 0.0000 0.2411
vn 0.0000 1.0000 0.0000
vn -0.2794 0.9242 -0.2604
vn 0.2736 0.9225 0.2722
vn 0.2745 0.9256 -0.2608
usemtl Material
s off
f 42/1/1 46/2/1 45/3/1
f 35/4/2 4/5/2 20/6/2 40/7/2
f 30/8/3 27/9/3 5/10/3 6/11/3
f 55/12/4 53/13/4 4/5/4 35/4/4
f 3/14/5 4/5/5 12/15/5 11/16/5
f 1/17/6 2/18/6 13/19/6 15/20/6
f 54/21/7 51/22/7 11/16/7 12/15/7
f 2/18/8 1/17/8 9/23/8 10/24/8
f 28/25/9 2/18/9 10/24/9 29/26/9
f 50/27/10 3/14/10 11/16/10 51/22/10
f 37/28/11 38/29/11 15/20/11 13/19/11
f 6/11/12 5/10/12 16/30/12 14/31/12
f 33/32/13 6/33/13 14/34/13 37/35/13
f 36/36/14 1/17/14 15/20/14 38/37/14
f 40/38/15 39/39/15 18/40/15 17/41/15
f 34/42/16 7/43/16 18/44/16 39/45/16
f 4/5/17 3/14/17 19/46/17 20/6/17
f 7/47/18 8/48/18 17/49/18 18/50/18
f 31/51/10 22/52/10 25/53/10 32/54/10
f 53/13/9 24/55/9 26/56/9 54/21/9
f 29/26/7 32/54/7 25/53/7 26/56/7
f 44/57/4 28/25/4 24/55/4 41/58/4
f 49/59/3 52/60/3 23/61/3 21/62/3
f 43/63/19 27/64/19 23/65/19 46/2/19 48/66/19
f 36/36/19 5/67/19 27/64/19 43/63/19
f 33/32/4 2/18/4 28/25/4 44/57/4
f 10/24/7 9/23/7 32/54/7 29/26/7
f 1/17/10 31/51/10 32/54/10 9/23/10
f 24/55/9 28/25/9 29/26/9 26/56/9
f 21/62/3 23/61/3 27/9/3 30/8/3
f 6/33/4 33/32/4 44/57/4 30/68/4
f 1/17/19 36/36/19 43/63/19 31/51/19
f 31/51/19 43/63/19 48/66/19 47/69/19 22/52/19
f 30/68/4 44/57/4 41/58/4 21/70/4
f 3/14/16 34/42/16 39/45/16 19/46/16
f 20/6/15 19/46/15 39/39/15 40/38/15
f 5/67/14 36/36/14 38/37/14 16/71/14
f 2/18/13 33/32/13 37/35/13 13/19/13
f 14/31/11 16/30/11 38/29/11 37/28/11
f 49/72/4 55/12/4 35/4/4 8/73/4
f 8/73/2 35/4/2 40/7/2 17/74/2
f 22/52/19 47/69/19 45/3/19 34/42/19 3/14/19 50/27/19
f 21/70/4 41/58/4 55/12/4 49/72/4
f 48/66/20 46/2/20 42/1/20
f 45/3/19 46/2/19 23/65/19 52/75/19 7/43/19 34/42/19
f 45/3/21 47/69/21 42/1/21
f 47/69/22 48/66/22 42/1/22
f 8/48/3 7/47/3 52/60/3 49/59/3
f 4/5/9 53/13/9 54/21/9 12/15/9
f 22/52/10 50/27/10 51/22/10 25/53/10
f 26/56/7 25/53/7 51/22/7 54/21/7
f 41/58/4 24/55/4 53/13/4 55/12/4
