# Blender v2.81 (sub 16) OBJ File: 'TV_Stand.blend'
# www.blender.org
mtllib TV_Stand.mtl
o Cube
v 1.000000 2.452491 -4.993310
v 1.000000 -1.000000 -5.391768
v 1.000000 2.519793 0.433061
v 1.000000 -1.000000 1.000000
v -1.450656 2.452491 -4.993310
v -1.450656 -1.000000 -5.391768
v -1.450656 2.519793 0.433061
v -1.450656 -1.000000 1.000000
v -1.450656 -1.000000 -2.195884
v 1.000000 2.577152 -2.195884
v -1.450656 2.577152 -2.195884
v 1.000000 -1.000000 -2.195884
v 1.000000 0.788576 -5.391768
v -1.450656 0.788576 1.000000
v 1.000000 0.788576 1.000000
v -1.450656 0.788576 -5.391768
v 1.000000 0.788576 -2.195884
v -1.450656 0.788576 -2.195884
v -1.450656 1.682864 1.000000
v 1.000000 1.682864 -5.391768
v 1.000000 1.682864 1.000000
v -1.450656 1.682864 -5.391768
v 1.000000 1.682864 -2.195884
v -1.450656 1.682864 -2.195884
v -1.450656 2.577152 -4.691748
v 1.000000 -1.000000 -4.691748
v -1.450656 -1.000000 -4.691748
v 1.000000 2.577152 -4.691748
v 1.000000 0.788576 -4.954260
v -1.450656 0.788576 -4.691748
v 1.000000 1.682864 -4.954260
v -1.450656 1.682864 -4.691748
v -1.450656 -1.000000 0.082764
v 1.000000 2.577152 0.082764
v -1.450656 2.577152 0.082764
v 1.000000 -1.000000 0.082764
v -1.450656 0.788576 0.082764
v 1.000000 0.788576 0.449426
v -1.450656 1.682864 0.082764
v 1.000000 1.682864 0.449426
v -1.363492 1.682864 -2.195884
v -1.363492 0.788576 -2.195884
v -1.363492 0.788576 -4.954260
v -1.363492 1.682864 -4.954260
v -1.363492 0.788576 0.449426
v -1.363492 1.682864 0.449426
v -1.450656 -1.346901 0.082764
v -1.450656 -1.346901 1.000000
v 1.000000 -1.346901 -5.391768
v -1.450656 -1.346901 -5.391768
v 1.000000 -1.346901 1.000000
v 1.000000 -1.346901 -4.691748
v -1.450656 -1.346901 -4.691748
v 1.000000 -1.346901 0.082764
vt 0.625000 0.687500
vt 0.875000 0.687500
vt 0.875000 0.750000
vt 0.625000 0.750000
vt 0.562500 0.750000
vt 0.625000 1.000000
vt 0.562500 1.000000
vt 0.562500 0.187500
vt 0.625000 0.187500
vt 0.625000 0.250000
vt 0.562500 0.250000
vt 0.125000 0.687500
vt 0.375000 0.687500
vt 0.375000 0.687500
vt 0.125000 0.687500
vt 0.562500 0.687500
vt 0.625000 0.500000
vt 0.562500 0.500000
vt 0.562500 0.562500
vt 0.625000 0.562500
vt 0.625000 0.625000
vt 0.562500 0.625000
vt 0.125000 0.562500
vt 0.375000 0.562500
vt 0.375000 0.625000
vt 0.125000 0.625000
vt 0.562500 0.062500
vt 0.625000 0.062500
vt 0.625000 0.125000
vt 0.562500 0.125000
vt 0.875000 0.562500
vt 0.875000 0.625000
vt 0.375000 0.062500
vt 0.500000 0.062500
vt 0.500000 0.125000
vt 0.375000 0.125000
vt 0.500000 0.562500
vt 0.500000 0.625000
vt 0.375000 0.250000
vt 0.500000 0.250000
vt 0.500000 0.500000
vt 0.375000 0.500000
vt 0.500000 0.687500
vt 0.500000 0.750000
vt 0.375000 0.750000
vt 0.375000 0.187500
vt 0.500000 0.187500
vt 0.500000 1.000000
vt 0.375000 1.000000
vt 0.562500 0.687500
vt 0.562500 0.625000
vt 0.875000 0.500000
vt 0.375000 0.500000
vt 0.375000 0.250000
vt 0.500000 0.562500
vt 0.500000 0.625000
vt 0.500000 0.000000
vt 0.562500 0.000000
vt 0.375000 0.000000
vt 0.625000 0.000000
vt 0.562500 0.562500
vt 0.500000 0.687500
vt 0.375000 0.750000
vt 0.125000 0.750000
vt 0.125000 0.500000
vt 0.375000 0.562500
vt 0.125000 0.562500
vt 0.375000 1.000000
vt 0.375000 0.187500
vt 0.375000 0.062500
vt 0.375000 0.000000
vn 0.0000 0.9869 0.1616
vn 0.0000 0.5608 0.8279
vn -1.0000 -0.0000 0.0000
vn 0.0000 0.0000 -1.0000
vn 1.0000 0.0000 0.0000
vn 0.0000 0.4598 -0.8880
vn 0.0000 -1.0000 0.0000
vn 0.0000 1.0000 0.0000
vn 0.0000 0.0000 1.0000
vn 0.0000 0.9242 -0.3820
usemtl Material
s off
f 34/1/1 35/2/1 7/3/1 3/4/1
f 21/5/2 3/4/2 7/6/2 19/7/2
f 32/8/3 25/9/3 5/10/3 22/11/3
f 33/12/4 36/13/4 54/14/4 47/15/4
f 40/16/5 34/1/5 3/4/5 21/5/5
f 22/11/6 5/10/6 1/17/6 20/18/6
f 31/19/5 28/20/5 10/21/5 23/22/5
f 27/23/7 26/24/7 12/25/7 9/26/7
f 39/27/3 35/28/3 11/29/3 24/30/3
f 28/20/8 25/31/8 11/32/8 10/21/8
f 33/33/3 37/34/3 18/35/3 9/36/3
f 26/24/5 29/37/5 17/38/5 12/25/5
f 6/39/4 16/40/4 13/41/4 2/42/4
f 36/13/5 38/43/5 15/44/5 4/45/5
f 27/46/3 30/47/3 16/40/3 6/39/3
f 4/45/9 15/44/9 14/48/9 8/49/9
f 37/34/3 39/27/3 24/30/3 18/35/3
f 23/22/7 40/16/7 46/50/7 41/51/7
f 16/40/4 22/11/4 20/18/4 13/41/4
f 38/43/5 40/16/5 21/5/5 15/44/5
f 30/47/3 32/8/3 22/11/3 16/40/3
f 15/44/9 21/5/9 19/7/9 14/48/9
f 18/35/3 24/30/3 32/8/3 30/47/3
f 13/41/5 20/18/5 31/19/5 29/37/5
f 9/36/3 18/35/3 30/47/3 27/46/3
f 2/42/5 13/41/5 29/37/5 26/24/5
f 1/17/10 5/52/10 25/31/10 28/20/10
f 6/39/4 2/42/4 49/53/4 50/54/4
f 20/18/5 1/17/5 28/20/5 31/19/5
f 24/30/3 11/29/3 25/9/3 32/8/3
f 17/38/8 29/37/8 43/55/8 42/56/8
f 14/57/3 19/58/3 39/27/3 37/34/3
f 12/25/5 17/38/5 38/43/5 36/13/5
f 8/59/3 14/57/3 37/34/3 33/33/3
f 19/58/3 7/60/3 35/28/3 39/27/3
f 23/22/5 10/21/5 34/1/5 40/16/5
f 9/26/7 12/25/7 36/13/7 33/12/7
f 10/21/8 11/32/8 35/2/8 34/1/8
f 43/55/5 44/61/5 41/51/5 42/56/5
f 42/56/5 41/51/5 46/50/5 45/62/5
f 38/43/8 17/38/8 42/56/8 45/62/8
f 31/19/7 23/22/7 41/51/7 44/61/7
f 40/16/4 38/43/4 45/62/4 46/50/4
f 29/37/9 31/19/9 44/61/9 43/55/9
f 47/15/7 54/14/7 51/63/7 48/64/7
f 50/65/7 49/53/7 52/66/7 53/67/7
f 36/13/5 4/45/5 51/63/5 54/14/5
f 4/45/9 8/49/9 48/68/9 51/63/9
f 26/24/9 27/23/9 53/67/9 52/66/9
f 27/46/3 6/39/3 50/54/3 53/69/3
f 8/59/3 33/33/3 47/70/3 48/71/3
f 2/42/5 26/24/5 52/66/5 49/53/5
