# Blender v2.81 (sub 16) OBJ File: 'wall.blend'
# www.blender.org
mtllib wall.mtl
o Cube
v 3.941648 7.925278 -0.106962
v 3.941648 0.041981 -0.106962
v 3.941648 7.925278 0.106962
v 3.941648 0.041981 0.106962
v -3.941648 7.925278 -0.106962
v -3.941648 0.041981 -0.106962
v -3.941648 7.925278 0.106962
v -3.941648 0.041981 0.106962
vt -1.498953 6.496858
vt -5.496858 6.496859
vt -5.496859 2.498955
vt -1.498954 2.498954
vt -5.496857 -1.498952
vt -5.496859 -5.496857
vt -1.498954 -5.496859
vt -1.498952 -1.498954
vt -1.498952 2.498952
vt -5.496859 -1.498951
vt -1.498954 -1.498952
vt 2.498954 -1.498954
vt 2.498954 -5.496859
vt 6.496859 -5.496858
vt 6.496859 -1.498954
vt 2.498952 -1.498952
vt 2.498954 2.498952
vt -1.498952 -1.498952
vt -1.498952 -5.496857
vt 2.498952 -5.496859
vn 0.0000 1.0000 0.0000
vn 0.0000 0.0000 1.0000
vn -1.0000 0.0000 0.0000
vn 0.0000 -1.0000 0.0000
vn 1.0000 0.0000 0.0000
vn 0.0000 0.0000 -1.0000
usemtl Material
s off
f 1/1/1 5/2/1 7/3/1 3/4/1
f 4/5/2 3/6/2 7/7/2 8/8/2
f 8/9/3 7/3/3 5/10/3 6/11/3
f 6/12/4 2/13/4 4/14/4 8/15/4
f 2/16/5 1/17/5 3/4/5 4/18/5
f 6/11/6 5/19/6 1/20/6 2/16/6
